<?xml version="1.0" encoding="UTF-8"?>
<svg version="1.1" xmlns="http://www.w3.org/2000/svg" width="32" height="32">
<path d="M0 0 C1.14984375 -0.00386719 2.2996875 -0.00773438 3.484375 -0.01171875 C4.68578125 -0.00011719 5.8871875 0.01148437 7.125 0.0234375 C8.32640625 0.01183594 9.5278125 0.00023438 10.765625 -0.01171875 C12.49039062 -0.00591797 12.49039062 -0.00591797 14.25 0 C15.83167969 0.00507568 15.83167969 0.00507568 17.4453125 0.01025391 C20.125 0.3984375 20.125 0.3984375 21.96728516 1.55615234 C23.61461838 4.17757294 23.51354594 6.1910385 23.5234375 9.2734375 C23.52923828 10.99820312 23.52923828 10.99820312 23.53515625 12.7578125 C23.52355469 13.95921875 23.51195312 15.160625 23.5 16.3984375 C23.51160156 17.59984375 23.52320313 18.80125 23.53515625 20.0390625 C23.53128906 21.18890625 23.52742188 22.33875 23.5234375 23.5234375 C23.52005371 24.57789062 23.51666992 25.63234375 23.51318359 26.71875 C23.125 29.3984375 23.125 29.3984375 21.96728516 31.24072266 C19.34586456 32.88805588 17.332399 32.78698344 14.25 32.796875 C13.10015625 32.80074219 11.9503125 32.80460937 10.765625 32.80859375 C9.56421875 32.79699219 8.3628125 32.78539062 7.125 32.7734375 C5.92359375 32.78503906 4.7221875 32.79664063 3.484375 32.80859375 C1.75960938 32.80279297 1.75960938 32.80279297 0 32.796875 C-1.05445313 32.79349121 -2.10890625 32.79010742 -3.1953125 32.78662109 C-5.875 32.3984375 -5.875 32.3984375 -7.71728516 31.24072266 C-9.36461838 28.61930206 -9.26354594 26.6058365 -9.2734375 23.5234375 C-9.27730469 22.37359375 -9.28117188 21.22375 -9.28515625 20.0390625 C-9.27355469 18.83765625 -9.26195312 17.63625 -9.25 16.3984375 C-9.26160156 15.19703125 -9.27320313 13.995625 -9.28515625 12.7578125 C-9.28128906 11.60796875 -9.27742187 10.458125 -9.2734375 9.2734375 C-9.27005371 8.21898437 -9.26666992 7.16453125 -9.26318359 6.078125 C-8.875 3.3984375 -8.875 3.3984375 -7.71728516 1.55615234 C-5.09586456 -0.09118088 -3.082399 0.00989156 0 0 Z M10.125 5.3984375 C8.77911674 7.95501485 7.44824672 10.51767655 6.125 13.0859375 C5.7434375 13.80716797 5.361875 14.52839844 4.96875 15.27148438 C3.0087916 19.10390303 1.56625747 21.97214899 2.125 26.3984375 C2.5375 25.9859375 2.95 25.5734375 3.375 25.1484375 C5.29166667 23.23177083 7.20833333 21.31510417 9.125 19.3984375 C9.125 21.7084375 9.125 24.0184375 9.125 26.3984375 C9.455 26.3984375 9.785 26.3984375 10.125 26.3984375 C10.785 23.0984375 11.445 19.7984375 12.125 16.3984375 C10.805 16.3984375 9.485 16.3984375 8.125 16.3984375 C9.115 12.7684375 10.105 9.1384375 11.125 5.3984375 C10.795 5.3984375 10.465 5.3984375 10.125 5.3984375 Z " fill="#323232" transform="translate(8.875,-0.3984375)"/>
</svg>
